#N canvas 342 491 450 300 10;
#X obj 266 122 s \$0-tab;
#X obj 296 157 table \$0-tab;
#X obj 15 214 outlet~;
#X obj 16 159 tabread4~ \$0-tab;
#X obj 265 46 loadbang;
#X obj 141 214 outlet;
#X obj 141 159 tabread4 \$0-tab;
#X obj 16 57 inlet~;
#X msg 266 99 cosinesum \$1 0.5 -0.5;
#X obj 265 75 f \$1;
#X obj 16 88 *~ \$1;
#X obj 142 58 inlet;
#X obj 141 86 * \$1;
#X obj 15 125 +~ 1;
#X obj 141 125 + 1;
#X text 17 255 the default size is 512 (thats what you get if you send
in 0);
#X text 7 9 builds a cosine window and provides an interface for reading
it. inputs should be scaled 0-1.;
#X obj 380 28 inlet;
#X obj 367 51 t b;
#X connect 3 0 2 0;
#X connect 4 0 9 0;
#X connect 6 0 5 0;
#X connect 7 0 10 0;
#X connect 8 0 0 0;
#X connect 9 0 8 0;
#X connect 10 0 13 0;
#X connect 11 0 12 0;
#X connect 12 0 14 0;
#X connect 13 0 3 0;
#X connect 14 0 6 0;
#X connect 17 0 18 0;
#X connect 18 0 9 0;
