#N canvas 377 290 1023 760 10;
#X floatatom 188 484 5 0 0 2 duration - -;
#X obj 172 679 print d;
#X obj 711 212 openpanel;
#X msg 709 185 bang;
#X obj 652 353 soundfiler;
#X floatatom 661 378 0 0 0 0 - - -;
#X obj 16 488 /;
#X obj 16 448 t b f;
#X floatatom 12 515 5 0 0 0 - - -;
#X text 5 532 density;
#X obj 71 313 t3_metro 40;
#X obj 103 352 t f f b;
#X msg 45 232 stop;
#X msg 30 212 start 0;
#X floatatom 146 223 5 0 0 2 grain_period - -;
#X obj 193 414 * 2;
#X obj 228 334 tgl 15 0 empty empty empty 0 -6 0 8 -262144 -1 -1 1
1;
#X floatatom 245 370 5 0 0 2 density - -;
#X obj 176 614 pack f f s f f f f;
#X msg 314 558 0;
#X msg 94 283 bang;
#X obj 199 392 t b f;
#X obj 750 358 bng 15 250 50 0 empty empty empty 0 -6 0 8 -262144 -1
-1;
#X obj 709 436 t b f;
#X obj 726 492 /;
#X obj 706 399 / 44100;
#X floatatom 757 426 5 0 0 0 - - -;
#X msg 709 466 1;
#X floatatom 264 509 5 0 0 2 pitch - -;
#X obj 155 179 init 5;
#X obj 729 523 * 60;
#X obj 227 308 init 1;
#X text 711 161 FIRST: load a sample here;
#X text 17 188 SECOND: start;
#X obj 158 251 max 2;
#X obj 17 113 inlet;
#X obj 144 110 inlet;
#X obj 212 115 inlet;
#X obj 276 118 inlet;
#X obj 330 121 inlet;
#X obj 11 170 loadbang;
#X floatatom 253 434 5 0 0 2 offset - -;
#X obj 178 360 spigot;
#X obj 107 381 t f f f;
#X obj 300 260 f;
#X obj 305 209 / 90;
#X obj 354 208 / 180;
#X obj 352 255 f;
#X obj 416 206 / 180;
#X obj 414 253 f;
#X obj 102 415 t f b;
#X obj 118 436 t f b;
#X obj 133 459 t f b;
#X obj 465 704 outlet~;
#X obj 514 65 inlet;
#X obj 577 512 inlet;
#X text 507 50 boost;
#X text 580 494 noise;
#X obj 315 394 + 0;
#X obj 346 441 random 1000;
#X obj 349 464 - 500;
#X obj 348 486 / 500;
#X obj 313 418 t f b;
#X obj 310 528 +;
#X obj 351 513 * 0;
#X obj 402 480 * 0.1;
#X obj 707 283 pack s f;
#X msg 649 320 read -resize \$1 \$2-tab-l \$2-tab-r;
#X obj 797 356 table \$0-tab-l;
#X obj 796 385 table \$0-tab-r;
#X obj 168 637 nqpoly4 9 t3_timestretch_grain1s \$0-out;
#X obj 463 575 catch~ \$0-out-l;
#X obj 615 573 catch~ \$0-out-r;
#X obj 209 549 init symbol \$0-tab;
#X obj 260 470 init 44.1;
#X obj 790 260 f \$0;
#X obj 796 237 loadbang;
#X obj 595 211 loadbang;
#N canvas 0 0 450 300 distort 0;
#X obj 42 47 inlet~;
#X obj 43 72 dist~;
#X obj 43 98 lop~ 5000;
#X obj 43 158 outlet~;
#X obj 159 21 loadbang;
#X msg 162 55 20;
#X obj 43 129 *~ 0.3;
#X connect 0 0 1 0;
#X connect 1 0 2 0;
#X connect 2 0 6 0;
#X connect 4 0 5 0;
#X connect 5 0 1 1;
#X connect 6 0 3 0;
#X restore 511 621 pd distort;
#X obj 466 598 spigot~;
#X obj 617 700 outlet~;
#N canvas 546 444 450 300 distort 0;
#X obj 42 47 inlet~;
#X obj 43 72 dist~;
#X obj 43 98 lop~ 5000;
#X obj 43 172 outlet~;
#X obj 159 21 loadbang;
#X msg 162 55 20;
#X obj 44 140 *~ 0.3;
#X connect 0 0 1 0;
#X connect 1 0 2 0;
#X connect 2 0 6 0;
#X connect 4 0 5 0;
#X connect 5 0 1 1;
#X connect 6 0 3 0;
#X restore 660 617 pd distort;
#X obj 616 595 spigot~;
#X floatatom 577 536 5 0 0 0 - - -;
#X text 541 704 main out;
#X obj 263 531 / 4;
#X floatatom 177 284 5 0 0 0 - - -;
#X floatatom 473 335 5 0 0 0 - - -;
#X obj 459 359 f;
#X obj 459 381 - 1;
#X floatatom 459 403 5 0 0 0 - - -;
#X obj 417 310 metro 500;
#X obj 419 288 tgl 15 0 empty empty empty 0 -6 0 8 -262144 -1 -1 0
1;
#X msg 588 254 symbol hunk.wav;
#X obj 122 157 scale -1 1 10 100;
#X obj 19 138 scale -1 1 -100 100;
#X floatatom 504 428 5 0 0 0 - - -;
#X obj 512 174 select 0 1;
#X msg 509 205 4;
#X msg 542 201 1;
#X floatatom 532 103 5 0 0 0 - - -;
#X msg 607 233 symbol hunk2.wav;
#X connect 0 0 6 0;
#X connect 0 0 18 1;
#X connect 2 0 66 0;
#X connect 3 0 2 0;
#X connect 4 0 5 0;
#X connect 4 0 18 6;
#X connect 5 0 25 0;
#X connect 6 0 8 0;
#X connect 7 0 6 0;
#X connect 7 1 6 1;
#X connect 10 0 11 0;
#X connect 11 0 43 0;
#X connect 12 0 10 0;
#X connect 13 0 10 0;
#X connect 14 0 34 0;
#X connect 15 0 0 0;
#X connect 16 0 42 1;
#X connect 17 0 21 0;
#X connect 18 0 70 0;
#X connect 19 0 18 5;
#X connect 20 0 11 0;
#X connect 21 0 15 0;
#X connect 21 1 15 1;
#X connect 22 0 5 0;
#X connect 23 0 27 0;
#X connect 23 1 24 1;
#X connect 24 0 30 0;
#X connect 25 0 26 0;
#X connect 25 0 23 0;
#X connect 27 0 24 0;
#X connect 28 0 85 0;
#X connect 29 0 14 0;
#X connect 31 0 16 0;
#X connect 34 0 10 1;
#X connect 34 0 7 0;
#X connect 34 0 42 0;
#X connect 34 0 86 0;
#X connect 35 0 95 0;
#X connect 36 0 94 0;
#X connect 37 0 45 0;
#X connect 38 0 46 0;
#X connect 39 0 48 0;
#X connect 40 0 13 0;
#X connect 41 0 18 3;
#X connect 42 0 15 0;
#X connect 43 0 50 0;
#X connect 43 1 51 0;
#X connect 43 2 52 0;
#X connect 44 0 58 0;
#X connect 45 0 44 1;
#X connect 46 0 47 1;
#X connect 47 0 58 0;
#X connect 48 0 49 1;
#X connect 49 0 58 0;
#X connect 50 0 18 0;
#X connect 50 1 44 0;
#X connect 51 0 18 0;
#X connect 51 1 47 0;
#X connect 52 0 18 0;
#X connect 52 1 49 0;
#X connect 54 0 97 0;
#X connect 54 0 100 0;
#X connect 55 0 79 1;
#X connect 55 0 82 1;
#X connect 55 0 83 0;
#X connect 58 0 62 0;
#X connect 59 0 60 0;
#X connect 60 0 61 0;
#X connect 61 0 64 0;
#X connect 62 0 63 0;
#X connect 62 1 59 0;
#X connect 63 0 18 3;
#X connect 64 0 63 1;
#X connect 65 0 64 1;
#X connect 66 0 67 0;
#X connect 67 0 4 0;
#X connect 71 0 79 0;
#X connect 72 0 82 0;
#X connect 73 0 18 2;
#X connect 74 0 28 0;
#X connect 75 0 66 1;
#X connect 76 0 75 0;
#X connect 77 0 101 0;
#X connect 78 0 53 0;
#X connect 79 0 53 0;
#X connect 79 1 78 0;
#X connect 81 0 80 0;
#X connect 82 0 80 0;
#X connect 82 1 81 0;
#X connect 85 0 18 4;
#X connect 87 0 88 1;
#X connect 88 0 89 0;
#X connect 89 0 90 0;
#X connect 90 0 88 1;
#X connect 91 0 88 0;
#X connect 92 0 91 0;
#X connect 93 0 66 0;
#X connect 94 0 14 0;
#X connect 95 0 28 0;
#X connect 96 0 85 1;
#X connect 97 0 98 0;
#X connect 97 1 99 0;
#X connect 98 0 96 0;
#X connect 99 0 96 0;
#X connect 101 0 66 0;
