#N canvas 832 203 742 747 10;
#X floatatom 200 302 5 0 0 0 - - -;
#X obj 233 335 * 6.28318;
#X obj 197 279 bng 15 250 50 0 empty empty empty 0 -6 0 8 -262144 -1
-1;
#X obj 323 374 /;
#X floatatom 291 400 0 0 0 0 - - -;
#X obj 301 481 t b f;
#X msg 293 508 1;
#X obj 302 535 -;
#X floatatom 307 561 0 0 0 0 - - -;
#X obj 116 490 *;
#X obj 124 556 +;
#X obj 116 442 t f b;
#X obj 158 497 f;
#X floatatom 102 624 5 0 0 0 - - -;
#X obj 173 529 *;
#X obj 357 322 t b f;
#X obj 209 42 inlet;
#X text 203 25 cutoff;
#X obj 27 19 inlet;
#X obj 174 638 outlet;
#X obj 262 279 f \$1;
#X msg 179 429 0;
#X obj 392 113 timer;
#X obj 394 82 t b b;
#X obj 57 52 t f b;
#X obj 389 170 t b f;
#X msg 392 192 1;
#X obj 412 215 /;
#N canvas 0 0 450 300 bigorsmall 1;
#X obj 133 82 abs;
#X obj 213 138 > 1e+19;
#X obj 171 106 t f f;
#X obj 164 163 ||;
#X obj 99 53 t f f;
#X obj 114 243 f;
#X obj 59 18 inlet;
#X obj 159 190 sel 0 1;
#X obj 114 273 outlet;
#X msg 170 241 0;
#X obj 147 139 < 1e-19;
#X connect 0 0 2 0;
#X connect 1 0 3 1;
#X connect 2 0 10 0;
#X connect 2 1 1 0;
#X connect 3 0 7 0;
#X connect 4 0 0 0;
#X connect 4 1 5 1;
#X connect 5 0 8 0;
#X connect 6 0 4 0;
#X connect 7 0 5 0;
#X connect 7 1 9 0;
#X connect 9 0 8 0;
#X connect 10 0 3 0;
#X restore 155 602 pd bigorsmall;
#X obj 330 418 clip 0 1;
#X floatatom 433 254 6 0 0 0 - - -;
#X floatatom 445 167 6 0 0 0 - - -;
#X obj 394 142 / 1000;
#X obj 283 213 loadbang;
#X floatatom 127 677 5 0 0 0 - - -;
#X connect 0 0 1 0;
#X connect 1 0 3 0;
#X connect 2 0 0 0;
#X connect 3 0 4 0;
#X connect 3 0 29 0;
#X connect 5 0 6 0;
#X connect 5 1 7 1;
#X connect 6 0 7 0;
#X connect 7 0 8 0;
#X connect 7 0 14 1;
#X connect 9 0 10 0;
#X connect 10 0 13 0;
#X connect 10 0 28 0;
#X connect 11 0 9 0;
#X connect 11 1 12 0;
#X connect 12 0 14 0;
#X connect 14 0 10 1;
#X connect 15 0 3 0;
#X connect 15 1 3 1;
#X connect 16 0 20 0;
#X connect 18 0 24 0;
#X connect 20 0 1 0;
#X connect 21 0 12 1;
#X connect 22 0 32 0;
#X connect 23 0 22 0;
#X connect 23 1 22 1;
#X connect 24 0 11 0;
#X connect 24 1 23 0;
#X connect 25 0 26 0;
#X connect 25 1 27 1;
#X connect 26 0 27 0;
#X connect 27 0 15 0;
#X connect 27 0 30 0;
#X connect 28 0 19 0;
#X connect 28 0 12 1;
#X connect 28 0 34 0;
#X connect 29 0 5 0;
#X connect 29 0 9 1;
#X connect 32 0 25 0;
#X connect 32 0 31 0;
#X connect 33 0 20 0;
