#N canvas 0 0 450 300 10;
#X obj 173 91 inlet;
#X msg 171 140 1;
#X obj 180 167 -;
#X obj 174 117 t b f;
#X obj 179 201 outlet;
#X connect 0 0 3 0;
#X connect 1 0 2 0;
#X connect 2 0 4 0;
#X connect 3 0 1 0;
#X connect 3 1 2 1;
