#N canvas 465 209 908 622 10;
#X obj 59 203 *~ 0;
#X obj 54 248 +~ 0;
#X obj 107 340 tabread4~;
#X obj 118 386 *~;
#X obj 55 164 *~ 0;
#X obj 106 9 inlet;
#X obj 16 112 delay;
#X obj 19 414 outlet;
#X obj 588 16 inlet;
#X text 10 439 pix.test.at;
#X obj 107 30 t a b;
#X obj 78 134 t3_line~;
#X obj 73 97 pack 0 1 f;
#X msg 173 105 0 0 0;
#X obj 16 87 +;
#X text 90 246 offset;
#X text 97 203 pitch;
#X text 118 451 this is just mono for now;
#X obj 103 53 unpack f f s f f f f;
#X obj 53 289 wrap_range~;
#X obj 267 122 t b f;
#X obj 269 147 f;
#X obj 276 172 -;
#X obj 245 193 *;
#X obj 208 216 +;
#X text 435 161 since we have min/max offset should be 0-1;
#X text 175 13 args: list <predelay> <duration> <table> <offset> <pitch>
<minindex> <maxindex>;
#X obj 255 259 cosine_window 512;
#X msg 146 294 set \$1-l;
#X obj 206 343 tabread4~;
#X obj 217 389 *~;
#X msg 245 297 set \$1-r;
#X obj 123 424 throw~ \$3-l;
#X obj 222 427 throw~ \$3-r;
#X connect 0 0 1 0;
#X connect 1 0 19 0;
#X connect 2 0 3 0;
#X connect 3 0 32 0;
#X connect 4 0 0 0;
#X connect 5 0 10 0;
#X connect 6 0 7 0;
#X connect 8 0 27 2;
#X connect 10 0 18 0;
#X connect 10 1 13 0;
#X connect 11 0 4 0;
#X connect 11 0 27 0;
#X connect 12 0 11 0;
#X connect 13 0 11 0;
#X connect 14 0 6 0;
#X connect 18 0 12 0;
#X connect 18 0 14 0;
#X connect 18 1 4 1;
#X connect 18 1 12 2;
#X connect 18 1 14 1;
#X connect 18 2 28 0;
#X connect 18 2 31 0;
#X connect 18 3 23 0;
#X connect 18 4 0 1;
#X connect 18 5 19 1;
#X connect 18 5 20 0;
#X connect 18 5 24 1;
#X connect 18 6 19 2;
#X connect 18 6 21 1;
#X connect 19 0 2 0;
#X connect 19 0 29 0;
#X connect 20 0 21 0;
#X connect 20 1 22 1;
#X connect 21 0 22 0;
#X connect 22 0 23 1;
#X connect 23 0 24 0;
#X connect 24 0 1 1;
#X connect 27 0 3 1;
#X connect 27 0 30 1;
#X connect 28 0 2 0;
#X connect 29 0 30 0;
#X connect 30 0 33 0;
#X connect 31 0 29 0;
