#N canvas 949 325 450 413 10;
#X obj 35 27 inlet~;
#X obj 119 8 inlet;
#X obj 206 40 inlet;
#X obj 153 99 -;
#X obj 57 104 -~;
#X obj 70 151 /~;
#X obj 74 183 wrap~;
#X obj 89 223 *~;
#X obj 117 262 +~;
#X obj 119 327 outlet~;
#X obj 146 47 t b f;
#X obj 149 73 f;
#X text 186 171 args: signal min max;
#X text 175 201 outputs signal wrapped to stay in the range min-max
;
#X connect 0 0 4 0;
#X connect 1 0 4 1;
#X connect 1 0 8 1;
#X connect 1 0 10 0;
#X connect 2 0 11 1;
#X connect 3 0 5 1;
#X connect 3 0 7 1;
#X connect 4 0 5 0;
#X connect 5 0 6 0;
#X connect 6 0 7 0;
#X connect 7 0 8 0;
#X connect 8 0 9 0;
#X connect 10 0 11 0;
#X connect 10 1 3 1;
#X connect 11 0 3 0;
